<svg id="visual" viewBox="0 0 900 200" width="900" height="200" xmlns="http://www.w3.org/2000/svg" xmlns:xlink="http://www.w3.org/1999/xlink" version="1.1"><rect x="0" y="0" width="900" height="200" fill="#393646"></rect><path d="M0 114L15 119.2C30 124.3 60 134.7 90 143.7C120 152.7 150 160.3 180 163.2C210 166 240 164 270 159C300 154 330 146 360 137.3C390 128.7 420 119.3 450 116.2C480 113 510 116 540 123.7C570 131.3 600 143.7 630 143.7C660 143.7 690 131.3 720 126.2C750 121 780 123 810 122.5C840 122 870 119 885 117.5L900 116L900 201L885 201C870 201 840 201 810 201C780 201 750 201 720 201C690 201 660 201 630 201C600 201 570 201 540 201C510 201 480 201 450 201C420 201 390 201 360 201C330 201 300 201 270 201C240 201 210 201 180 201C150 201 120 201 90 201C60 201 30 201 15 201L0 201Z" fill="#4F4557" stroke-linecap="round" stroke-linejoin="miter"></path></svg>