<svg id="visual" viewBox="0 0 900 200" width="900" height="200" xmlns="http://www.w3.org/2000/svg" xmlns:xlink="http://www.w3.org/1999/xlink" version="1.1"><rect x="0" y="0" width="900" height="200" fill="#393646"></rect><path d="M0 95L11.5 89C23 83 46 71 69 65.3C92 59.7 115 60.3 138.2 67C161.3 73.7 184.7 86.3 207.8 88.8C231 91.3 254 83.7 277 88.2C300 92.7 323 109.3 346 111.2C369 113 392 100 415.2 93.5C438.3 87 461.7 87 484.8 84.2C508 81.3 531 75.7 554 77.8C577 80 600 90 623 100C646 110 669 120 692.2 119.3C715.3 118.7 738.7 107.3 761.8 105C785 102.7 808 109.3 831 102.8C854 96.3 877 76.7 888.5 66.8L900 57L900 0L888.5 0C877 0 854 0 831 0C808 0 785 0 761.8 0C738.7 0 715.3 0 692.2 0C669 0 646 0 623 0C600 0 577 0 554 0C531 0 508 0 484.8 0C461.7 0 438.3 0 415.2 0C392 0 369 0 346 0C323 0 300 0 277 0C254 0 231 0 207.8 0C184.7 0 161.3 0 138.2 0C115 0 92 0 69 0C46 0 23 0 11.5 0L0 0Z" fill="#4F4557" stroke-linecap="round" stroke-linejoin="miter"></path></svg>