<svg id="visual" viewBox="0 0 900 200" width="900" height="200" xmlns="http://www.w3.org/2000/svg" xmlns:xlink="http://www.w3.org/1999/xlink" version="1.1"><rect x="0" y="0" width="900" height="200" fill="#001220"></rect><path d="M0 132L21.5 134.7C43 137.3 86 142.7 128.8 141.3C171.7 140 214.3 132 257.2 127C300 122 343 120 385.8 120.8C428.7 121.7 471.3 125.3 514.2 125.7C557 126 600 123 642.8 125.2C685.7 127.3 728.3 134.7 771.2 134.8C814 135 857 128 878.5 124.5L900 121L900 201L878.5 201C857 201 814 201 771.2 201C728.3 201 685.7 201 642.8 201C600 201 557 201 514.2 201C471.3 201 428.7 201 385.8 201C343 201 300 201 257.2 201C214.3 201 171.7 201 128.8 201C86 201 43 201 21.5 201L0 201Z" fill="#fa7268"></path><path d="M0 142L21.5 141C43 140 86 138 128.8 138.7C171.7 139.3 214.3 142.7 257.2 145C300 147.3 343 148.7 385.8 147.2C428.7 145.7 471.3 141.3 514.2 142.3C557 143.3 600 149.7 642.8 149C685.7 148.3 728.3 140.7 771.2 138.5C814 136.3 857 139.7 878.5 141.3L900 143L900 201L878.5 201C857 201 814 201 771.2 201C728.3 201 685.7 201 642.8 201C600 201 557 201 514.2 201C471.3 201 428.7 201 385.8 201C343 201 300 201 257.2 201C214.3 201 171.7 201 128.8 201C86 201 43 201 21.5 201L0 201Z" fill="#ef5f67"></path><path d="M0 157L21.5 158C43 159 86 161 128.8 162.3C171.7 163.7 214.3 164.3 257.2 164.5C300 164.7 343 164.3 385.8 162.5C428.7 160.7 471.3 157.3 514.2 157C557 156.7 600 159.3 642.8 159.7C685.7 160 728.3 158 771.2 156.2C814 154.3 857 152.7 878.5 151.8L900 151L900 201L878.5 201C857 201 814 201 771.2 201C728.3 201 685.7 201 642.8 201C600 201 557 201 514.2 201C471.3 201 428.7 201 385.8 201C343 201 300 201 257.2 201C214.3 201 171.7 201 128.8 201C86 201 43 201 21.5 201L0 201Z" fill="#e34c67"></path><path d="M0 168L21.5 167C43 166 86 164 128.8 164.8C171.7 165.7 214.3 169.3 257.2 169.2C300 169 343 165 385.8 163.5C428.7 162 471.3 163 514.2 165.5C557 168 600 172 642.8 171.5C685.7 171 728.3 166 771.2 163.5C814 161 857 161 878.5 161L900 161L900 201L878.5 201C857 201 814 201 771.2 201C728.3 201 685.7 201 642.8 201C600 201 557 201 514.2 201C471.3 201 428.7 201 385.8 201C343 201 300 201 257.2 201C214.3 201 171.7 201 128.8 201C86 201 43 201 21.5 201L0 201Z" fill="#d53867"></path><path d="M0 176L21.5 175.8C43 175.7 86 175.3 128.8 176.5C171.7 177.7 214.3 180.3 257.2 181.3C300 182.3 343 181.7 385.8 182.2C428.7 182.7 471.3 184.3 514.2 184.7C557 185 600 184 642.8 184.5C685.7 185 728.3 187 771.2 187.5C814 188 857 187 878.5 186.5L900 186L900 201L878.5 201C857 201 814 201 771.2 201C728.3 201 685.7 201 642.8 201C600 201 557 201 514.2 201C471.3 201 428.7 201 385.8 201C343 201 300 201 257.2 201C214.3 201 171.7 201 128.8 201C86 201 43 201 21.5 201L0 201Z" fill="#c62368"></path></svg>